<svg width="20" height="20" viewBox="0 0 20 20" fill="none" xmlns="http://www.w3.org/2000/svg">
<path d="M7.99166 3.825C8.18525 3.63026 8.42395 3.48637 8.68655 3.40612C8.94915 3.32587 9.22751 3.31174 9.49689 3.365C9.76627 3.41825 10.0183 3.53724 10.2306 3.71137C10.4429 3.88551 10.6089 4.10941 10.7138 4.36316C10.8188 4.61692 10.8594 4.89266 10.832 5.16589C10.8047 5.43912 10.7103 5.70136 10.5572 5.9293C10.4041 6.15725 10.197 6.34383 9.95446 6.47248C9.71186 6.60112 9.44124 6.66782 9.16666 6.66667H1.66666M10.4917 16.175C10.6852 16.3697 10.9239 16.5136 11.1866 16.5939C11.4492 16.6741 11.7275 16.6883 11.9969 16.635C12.2663 16.5818 12.5183 16.4628 12.7306 16.2886C12.9429 16.1145 13.1089 15.8906 13.2138 15.6368C13.3188 15.3831 13.3594 15.1073 13.332 14.8341C13.3047 14.5609 13.2103 14.2987 13.0572 14.0707C12.9041 13.8428 12.697 13.6562 12.4545 13.5275C12.2119 13.3989 11.9412 13.3322 11.6667 13.3333H1.66666M14.775 6.44167C15.0174 6.19991 15.3156 6.0216 15.6433 5.92251C15.9709 5.82343 16.318 5.80662 16.6537 5.87358C16.9895 5.94053 17.3035 6.08919 17.5681 6.30639C17.8327 6.5236 18.0397 6.80267 18.1708 7.11891C18.3019 7.43516 18.353 7.77883 18.3197 8.11954C18.2864 8.46025 18.1696 8.7875 17.9797 9.07234C17.7898 9.35717 17.5326 9.59083 17.2309 9.75263C16.9292 9.91443 16.5923 9.99939 16.25 10H1.66666" stroke="white" stroke-width="2" stroke-linecap="round" stroke-linejoin="round"/>
</svg>
